HIERARCHY
ROOT Hips
{
	OFFSET -0.065777 -0.039915 -0.090800
	CHANNELS 6 Xposition Yposition Zposition Zrotation Yrotation Xrotation 
	JOINT LHipJoint
	{
		OFFSET -0.081400 -0.089336 -0.133639
		CHANNELS 3 Zrotation Yrotation Xrotation
		JOINT LeftUpLeg
		{
			OFFSET -0.128534 -0.216612 -0.293918
			CHANNELS 3 Zrotation Yrotation Xrotation
			JOINT LeftLeg
			{
				OFFSET -0.356167 -0.283278 -0.154315
				CHANNELS 3 Zrotation Yrotation Xrotation
				JOINT LeftFoot
				{
					OFFSET -0.101627 -0.065597 -0.039200
					CHANNELS 3 Zrotation Yrotation Xrotation
					JOINT LeftToeBase
					{
						OFFSET -0.109048 -0.089027 -0.115072
						CHANNELS 3 Zrotation Yrotation Xrotation
						End Site
						{
							OFFSET 0.000000 0.000000 0.000000
						}
					}
				}
			}
		}
	}
	JOINT RHipJoint
	{
		OFFSET -0.149582 -0.054090 0.005844
		CHANNELS 3 Zrotation Yrotation Xrotation
		JOINT RightUpLeg
		{
			OFFSET 0.015301 -0.018052 0.035262
			CHANNELS 3 Zrotation Yrotation Xrotation
			JOINT RightLeg
			{
				OFFSET 0.025427 0.021977 0.043415
				CHANNELS 3 Zrotation Yrotation Xrotation
				JOINT RightFoot
				{
					OFFSET -0.029180 -0.015017 0.034494
					CHANNELS 3 Zrotation Yrotation Xrotation
					JOINT RightToeBase
					{
						OFFSET 0.029200 0.097569 0.052767
						CHANNELS 3 Zrotation Yrotation Xrotation
						End Site
						{
							OFFSET 0.000000 0.000000 0.000000
						}
					}
				}
			}
		}
	}
	JOINT LowerBack
	{
		OFFSET 0.082375 0.070946 -0.017762
		CHANNELS 3 Zrotation Yrotation Xrotation
		JOINT Spine
		{
			OFFSET 0.021683 0.013402 0.007567
			CHANNELS 3 Zrotation Yrotation Xrotation
			JOINT Spine1
			{
				OFFSET 0.073402 0.093975 0.100764
				CHANNELS 3 Zrotation Yrotation Xrotation
				JOINT Neck
				{
					OFFSET 0.102157 0.090582 0.069120
					CHANNELS 3 Zrotation Yrotation Xrotation
					JOINT Neck1
					{
						OFFSET 0.113781 0.114654 0.060599
						CHANNELS 3 Zrotation Yrotation Xrotation
						JOINT Head
						{
							OFFSET 0.105580 0.050779 0.037079
							CHANNELS 3 Zrotation Yrotation Xrotation
							End Site
							{
								OFFSET 0.000000 0.000000 0.000000
							}
						}
					}
				}
				JOINT LeftShoulder
				{
					OFFSET 0.028480 0.033046 0.009857
					CHANNELS 3 Zrotation Yrotation Xrotation
					JOINT LeftArm
					{
						OFFSET 0.008982 0.085359 0.084423
						CHANNELS 3 Zrotation Yrotation Xrotation
						JOINT LeftForeArm
						{
							OFFSET 0.117539 0.082168 0.088799
							CHANNELS 3 Zrotation Yrotation Xrotation
							JOINT LeftHand
							{
								OFFSET 0.104291 0.142103 0.146319
								CHANNELS 3 Zrotation Yrotation Xrotation
								JOINT LeftFingerBase
								{
									OFFSET 0.068060 0.028733 0.037738
									CHANNELS 3 Zrotation Yrotation Xrotation
									JOINT LeftHandIndex1
									{
										OFFSET 0.003935 -0.042724 -0.088382
										CHANNELS 3 Zrotation Yrotation Xrotation
										End Site
										{
											OFFSET 0.000000 0.000000 0.000000
										}
									}
								}
								JOINT LThumb
								{
									OFFSET -0.135474 -0.125326 -0.072482
									CHANNELS 3 Zrotation Yrotation Xrotation
									End Site
									{
										OFFSET 0.000000 0.000000 0.000000
									}
								}
							}
						}
					}
				}
				JOINT RightShoulder
				{
					OFFSET -0.041436 -0.064643 -0.058682
					CHANNELS 3 Zrotation Yrotation Xrotation
					JOINT RightArm
					{
						OFFSET -0.087819 -0.038832 -0.018596
						CHANNELS 3 Zrotation Yrotation Xrotation
						JOINT RightForeArm
						{
							OFFSET -0.043835 0.001157 0.036416
							CHANNELS 3 Zrotation Yrotation Xrotation
							JOINT RightHand
							{
								OFFSET 0.012590 0.023006 -0.013950
								CHANNELS 3 Zrotation Yrotation Xrotation
								JOINT RightFingerBase
								{
									OFFSET -0.048070 -0.039918 -0.037616
									CHANNELS 3 Zrotation Yrotation Xrotation
									JOINT RightHandIndex1
									{
										OFFSET -0.106843 -0.092242 -0.111393
										CHANNELS 3 Zrotation Yrotation Xrotation
										End Site
										{
											OFFSET 0.000000 0.000000 0.000000
										}
									}
								}
								JOINT RThumb
								{
									OFFSET -0.093976 -0.031439 -0.025381
									CHANNELS 3 Zrotation Yrotation Xrotation
									End Site
									{
										OFFSET -0.012675 -0.044893 -0.004024
									}
								}
							}
						}
					}
				}
			}
		}
	}
}
MOTION
Frames: 9
Frame Time: 0.008333
0.121765 0.227399 0.235773 0.400828 0.364502 0.282602 0.220973 -0.051493 -0.036900 0.056647 0.014847 -0.074396 0.013819 0.056260 0.116366 0.186511 -0.045492 -0.194380 -0.176495 -0.048300 0.085650 -0.085796 0.009541 0.004658 0.098787 -0.058679 -0.114027 -0.004026 -0.082834 0.175941 0.163016 0.109247 0.196150 0.159734 -0.051781 -0.065370 -0.068797 -0.186262 -0.128354 -0.306748 -0.279058 -0.251886 -0.148811 -0.223735 -0.204471 0.000187 -0.048909 -0.025290 0.053616 0.003307 -0.038139 -0.122821 -0.024320 0.112972 0.140105 0.142764 0.159494 0.149110 0.126728 0.077925 -0.042167 0.158885 0.089529 0.077995 0.187255 0.230485 0.093299 0.136586 0.044608 -0.057057 -0.038032 0.107970 -0.033411 -0.029285 -0.087928 -0.121728 -0.140892 -0.255547 -0.275394 -0.198061 -0.245273 -0.050396 0.024089 -0.032324 -0.114708 -0.152596 -0.233822 -0.066088 0.087341 0.048413 0.054572 -0.019934 0.045989 -0.132848 -0.058831 0.071566
0.113265 0.204820 0.200882 0.357220 0.300579 0.234836 0.175857 -0.090649 -0.042863 0.070469 0.039713 -0.041917 0.026483 0.016441 0.079288 0.181492 -0.026425 -0.175573 -0.143569 -0.009565 0.113358 -0.065515 0.000212 0.004060 0.093001 -0.062448 -0.114343 0.001637 -0.044937 0.244983 0.222350 0.161856 0.232995 0.164706 -0.028016 -0.062128 -0.071913 -0.194193 -0.101222 -0.288999 -0.290477 -0.249854 -0.156862 -0.213322 -0.172569 0.028015 -0.036870 -0.016254 0.077081 0.026001 -0.010692 -0.109124 -0.006626 0.138586 0.172313 0.217246 0.219825 0.254087 0.225137 0.201426 0.104307 0.249609 0.175653 0.168797 0.256219 0.292329 0.147842 0.186829 0.105573 -0.010046 -0.018687 0.107197 -0.039064 -0.044735 -0.115631 -0.141894 -0.146590 -0.249050 -0.257759 -0.179510 -0.233842 -0.032930 0.046403 -0.032382 -0.117714 -0.171130 -0.273275 -0.099457 0.069798 0.024137 0.003766 -0.061324 0.013761 -0.128750 -0.027634 0.077151
0.089571 0.159817 0.141438 0.314834 0.274431 0.249255 0.179409 -0.100181 -0.021997 0.096289 0.118980 0.079146 0.103919 0.021482 0.055436 0.203787 0.028557 -0.050709 -0.025665 0.073051 0.175085 -0.036116 0.010720 0.084937 0.155853 0.019113 -0.013697 0.034336 0.020304 0.311967 0.263543 0.155886 0.213960 0.148871 -0.018626 -0.063820 0.001463 -0.080225 0.018494 -0.193735 -0.224666 -0.210135 -0.142388 -0.154073 -0.101590 0.085278 -0.010971 -0.017870 0.056545 0.011189 -0.000142 -0.075776 0.018688 0.107302 0.153519 0.220912 0.246494 0.278369 0.240607 0.208847 0.118522 0.272544 0.198294 0.178093 0.198789 0.254194 0.125847 0.162602 0.101649 0.006234 -0.012934 0.085159 -0.042637 0.016391 -0.040071 -0.094377 -0.118452 -0.268831 -0.248949 -0.164674 -0.271020 -0.130747 -0.024244 0.016996 -0.076041 -0.140694 -0.245925 -0.120223 0.097979 0.124794 0.074865 0.022973 0.118009 -0.050555 0.012435 0.052139
0.075898 0.140928 0.138709 0.289292 0.223350 0.201920 0.165377 -0.157998 -0.059085 0.045609 0.063420 0.029139 0.063790 0.018094 0.062760 0.178950 -0.045750 -0.130208 -0.124167 -0.009961 0.091433 -0.092292 -0.060839 0.037316 0.122196 -0.042397 -0.067641 0.027151 0.053205 0.348458 0.281017 0.192278 0.242438 0.169192 0.006383 -0.026500 0.058220 -0.047253 0.058514 -0.174845 -0.229583 -0.203489 -0.148555 -0.165054 -0.124621 0.046225 -0.048420 -0.042646 0.044843 -0.037039 -0.021318 -0.140146 -0.054995 0.092932 0.088004 0.194106 0.254052 0.291682 0.255988 0.247046 0.151939 0.294621 0.226509 0.224808 0.245933 0.311079 0.174727 0.257442 0.206750 0.105632 0.077245 0.087613 -0.058779 0.027549 -0.014547 -0.126107 -0.123699 -0.309575 -0.285732 -0.175878 -0.307446 -0.224688 -0.121914 -0.121819 -0.225267 -0.246279 -0.314872 -0.158062 0.056286 0.084198 0.014185 -0.029818 0.086208 -0.090353 -0.029637 -0.040847
0.115962 0.147859 0.149194 0.282747 0.201467 0.164506 0.142843 -0.141488 -0.039966 0.091665 0.102204 0.014927 0.077696 0.036864 0.051486 0.206300 -0.000638 -0.081248 -0.073941 0.017739 0.094807 -0.080782 -0.117431 -0.032614 0.066427 -0.089500 -0.099089 -0.043548 -0.038782 0.263281 0.200247 0.109369 0.194574 0.084494 -0.044448 -0.040967 0.054864 0.010932 0.130500 -0.139254 -0.220250 -0.257082 -0.196364 -0.179919 -0.110733 0.097417 0.030687 0.032641 0.140334 0.086833 0.080352 -0.048997 -0.019038 0.110986 0.060902 0.167130 0.251127 0.321840 0.315059 0.294642 0.149752 0.257717 0.200270 0.185726 0.186705 0.248250 0.116631 0.135337 0.138730 0.068712 0.007748 0.045263 -0.080297 0.000022 -0.040663 -0.134607 -0.140312 -0.317434 -0.230870 -0.140410 -0.262064 -0.120382 -0.053203 -0.058702 -0.186910 -0.181783 -0.214761 -0.103527 0.111460 0.123189 0.065946 0.030252 0.116885 -0.063749 -0.005962 0.030497
0.104398 0.116291 0.122573 0.271037 0.209178 0.176435 0.148981 -0.136410 -0.061145 0.067855 0.068095 -0.041916 0.036570 0.018966 0.030760 0.206028 0.034573 -0.055421 -0.035659 0.021318 0.078895 -0.085834 -0.105461 -0.018825 0.072914 -0.097607 -0.124146 -0.082413 -0.073098 0.214378 0.143731 0.056499 0.149165 0.032301 -0.092963 -0.049157 0.016116 -0.034969 0.091348 -0.179775 -0.279124 -0.287436 -0.232834 -0.208876 -0.115787 0.063880 -0.005160 -0.031795 0.089165 -0.000347 0.007632 -0.051027 -0.016782 0.153347 0.091259 0.214431 0.270307 0.293338 0.288338 0.252799 0.124437 0.230233 0.181268 0.161965 0.151491 0.238805 0.108338 0.133346 0.143556 0.079006 0.002565 0.034498 -0.071145 0.002342 -0.068990 -0.156644 -0.147069 -0.330057 -0.217583 -0.119136 -0.247750 -0.138342 -0.081342 -0.086855 -0.242883 -0.237851 -0.265265 -0.148585 0.057557 0.098226 0.054902 0.067694 0.166910 0.000861 0.067961 0.068702
0.120886 0.138208 0.138346 0.284890 0.225754 0.160651 0.128701 -0.108536 -0.049807 0.115074 0.101342 0.001021 0.098221 0.046507 0.044925 0.161039 -0.000129 -0.116386 -0.079888 -0.087732 -0.009200 -0.122522 -0.193359 -0.093638 0.027126 -0.104888 -0.145854 -0.128968 -0.081718 0.168144 0.139646 0.149352 0.239035 0.142407 0.038556 0.051480 0.060647 0.025489 0.124624 -0.151107 -0.270747 -0.258944 -0.231880 -0.243477 -0.165525 -0.057516 -0.123175 -0.096732 0.063351 -0.052926 -0.047863 -0.112947 -0.087963 0.130818 0.077250 0.187733 0.223801 0.226545 0.226474 0.230033 0.085759 0.201252 0.152915 0.165587 0.182143 0.261889 0.153986 0.175297 0.186106 0.101600 0.031202 0.021803 -0.124972 -0.118012 -0.181952 -0.217425 -0.127928 -0.278010 -0.166721 -0.073372 -0.199251 -0.110929 -0.030292 -0.052927 -0.215670 -0.182251 -0.235619 -0.107288 0.055335 0.004145 -0.056944 -0.076532 0.045841 0.008055 0.103917 0.135209
0.141874 0.153999 0.144176 0.275079 0.225611 0.139032 0.110868 -0.083823 -0.060686 0.121528 0.132363 0.013456 0.125474 0.099716 0.089888 0.202574 0.054554 -0.053287 -0.023533 -0.030464 0.005446 -0.073124 -0.144093 -0.115023 0.028834 -0.145202 -0.217133 -0.213446 -0.189902 0.043045 0.031482 0.082845 0.214177 0.158492 0.050101 0.066471 0.091278 0.055549 0.149701 -0.121561 -0.251660 -0.252095 -0.232936 -0.253774 -0.197202 -0.083096 -0.150567 -0.132209 0.007855 -0.140847 -0.120043 -0.175183 -0.117296 0.098490 0.050527 0.148567 0.182532 0.202337 0.176235 0.200005 0.048471 0.171399 0.126712 0.101501 0.105204 0.187114 0.074152 0.040741 0.049272 0.013447 -0.033500 0.035067 -0.082541 -0.064502 -0.126395 -0.206847 -0.140534 -0.279128 -0.227836 -0.184494 -0.301034 -0.217389 -0.113309 -0.093876 -0.211362 -0.177065 -0.258586 -0.152121 0.045692 -0.029586 -0.082746 -0.106592 -0.011949 -0.085525 0.009195 0.119941
0.100790 0.138069 0.134693 0.270162 0.221331 0.139078 0.100677 -0.114696 -0.127315 0.057939 0.087649 -0.023842 0.066660 0.042495 0.034561 0.146411 0.071868 -0.046014 -0.036299 -0.030279 -0.042757 -0.101716 -0.151241 -0.209810 -0.071649 -0.147108 -0.216046 -0.221915 -0.140794 0.083018 0.075266 0.188957 0.342149 0.284304 0.213162 0.224385 0.200805 0.139778 0.241609 -0.030955 -0.153420 -0.196420 -0.194260 -0.231260 -0.164780 -0.109931 -0.209314 -0.177881 -0.074196 -0.150546 -0.102115 -0.143083 -0.120766 0.038444 0.004401 0.101341 0.138132 0.189209 0.152390 0.121065 -0.048424 0.045337 -0.028660 -0.017808 -0.005622 0.135119 0.002838 -0.004479 0.001902 -0.026458 -0.079194 -0.015858 -0.124875 -0.119274 -0.150197 -0.206729 -0.048608 -0.174236 -0.138263 -0.057022 -0.206628 -0.153220 -0.015539 -0.035268 -0.173428 -0.130306 -0.210669 -0.104934 0.079068 -0.045798 -0.100010 -0.109565 0.040255 -0.034048 0.037493 0.226479
